# This file uses centimeters as units for non-parametric coordinates.

mtllib Nervio_Supraclavicular_I_2.mtl
g default
v 0.462038 0.741844 -0.271672
v 0.460184 0.744050 -0.274960
v 0.457303 0.746311 -0.277347
v 0.453676 0.748406 -0.278599
v 0.449659 0.750130 -0.278594
v 0.445645 0.751315 -0.277333
v 0.442026 0.751844 -0.274938
v 0.439158 0.751666 -0.271644
v 0.437320 0.750798 -0.267774
v 0.436692 0.749324 -0.263706
v 0.437337 0.747390 -0.259839
v 0.439191 0.745185 -0.256551
v 0.442072 0.742924 -0.254164
v 0.445698 0.740829 -0.252912
v 0.449715 0.739104 -0.252917
v 0.453730 0.737919 -0.254179
v 0.457348 0.737390 -0.256574
v 0.460217 0.737569 -0.259868
v 0.462055 0.738437 -0.263738
v 0.462682 0.739910 -0.267805
v 0.469766 0.759825 -0.263968
v 0.467913 0.762031 -0.267256
v 0.465032 0.764292 -0.269643
v 0.461405 0.766387 -0.270895
v 0.457388 0.768111 -0.270890
v 0.453373 0.769296 -0.269628
v 0.449755 0.769825 -0.267233
v 0.446886 0.769647 -0.263939
v 0.445048 0.768779 -0.260069
v 0.444421 0.767305 -0.256001
v 0.445066 0.765371 -0.252134
v 0.446919 0.763166 -0.248846
v 0.449800 0.760905 -0.246460
v 0.453427 0.758809 -0.245207
v 0.457444 0.757085 -0.245212
v 0.461458 0.755900 -0.246474
v 0.465077 0.755371 -0.248869
v 0.467946 0.755549 -0.252163
v 0.469783 0.756418 -0.256033
v 0.470411 0.757891 -0.260101
v 0.449687 0.744617 -0.265756
v 0.457416 0.762598 -0.258051
vt 0.375000 0.312500
vt 0.387500 0.312500
vt 0.387500 0.688440
vt 0.375000 0.688440
vt 0.400000 0.312500
vt 0.400000 0.688440
vt 0.412500 0.312500
vt 0.412500 0.688440
vt 0.425000 0.312500
vt 0.425000 0.688440
vt 0.437500 0.312500
vt 0.437500 0.688440
vt 0.450000 0.312500
vt 0.450000 0.688440
vt 0.462500 0.312500
vt 0.462500 0.688440
vt 0.475000 0.312500
vt 0.475000 0.688440
vt 0.487500 0.312500
vt 0.487500 0.688440
vt 0.500000 0.312500
vt 0.500000 0.688440
vt 0.512500 0.312500
vt 0.512500 0.688440
vt 0.525000 0.312500
vt 0.525000 0.688440
vt 0.537500 0.312500
vt 0.537500 0.688440
vt 0.550000 0.312500
vt 0.550000 0.688440
vt 0.562500 0.312500
vt 0.562500 0.688440
vt 0.575000 0.312500
vt 0.575000 0.688440
vt 0.587500 0.312500
vt 0.587500 0.688440
vt 0.600000 0.312500
vt 0.600000 0.688440
vt 0.612500 0.312500
vt 0.612500 0.688440
vt 0.625000 0.312500
vt 0.625000 0.688440
vt 0.626409 0.064408
vt 0.648603 0.107966
vt 0.500000 0.150000
vt 0.591842 0.029841
vt 0.548284 0.007647
vt 0.500000 -0.000000
vt 0.451716 0.007647
vt 0.408159 0.029841
vt 0.373591 0.064409
vt 0.351397 0.107966
vt 0.343750 0.156250
vt 0.351397 0.204534
vt 0.373591 0.248091
vt 0.408159 0.282659
vt 0.451716 0.304853
vt 0.500000 0.312500
vt 0.548284 0.304853
vt 0.591841 0.282659
vt 0.626409 0.248091
vt 0.648603 0.204534
vt 0.656250 0.156250
vt 0.648603 0.892034
vt 0.626409 0.935591
vt 0.500000 0.837500
vt 0.591841 0.970159
vt 0.548284 0.992353
vt 0.500000 1.000000
vt 0.451716 0.992353
vt 0.408159 0.970159
vt 0.373591 0.935591
vt 0.351397 0.892034
vt 0.343750 0.843750
vt 0.351397 0.795466
vt 0.373591 0.751909
vt 0.408159 0.717341
vt 0.451716 0.695147
vt 0.500000 0.687500
vt 0.548284 0.695147
vt 0.591842 0.717341
vt 0.626409 0.751908
vt 0.648603 0.795466
vt 0.656250 0.843750
vn 0.910639 -0.250655 -0.328494
vn 0.815001 -0.106219 -0.569641
vn 0.680566 0.021290 -0.732377
vn 0.856483 -0.157507 -0.491556
vn 0.639652 0.053622 -0.766792
vn 0.443459 0.185156 -0.876961
vn 0.401017 0.209730 -0.891739
vn 0.165906 0.327282 -0.930248
vn 0.122166 0.346070 -0.930221
vn -0.126150 0.436016 -0.891054
vn -0.169877 0.448909 -0.877282
vn -0.404615 0.501555 -0.764676
vn -0.447038 0.507705 -0.736473
vn -0.642548 0.518078 -0.564559
vn -0.683450 0.515308 -0.517063
vn -0.816885 0.484929 -0.312318
vn -0.858379 0.463322 -0.220267
vn -0.911360 0.409510 -0.041534
vn -0.930044 0.336713 0.147113
vn -0.930047 0.337384 0.145550
vn -0.856472 0.157497 0.491579
vn -0.910639 0.250658 0.328492
vn -0.680577 -0.021284 0.732367
vn -0.814985 0.106206 0.569667
vn -0.443466 -0.185153 0.876958
vn -0.639668 -0.053613 0.766779
vn -0.165882 -0.327294 0.930248
vn -0.401019 -0.209730 0.891738
vn 0.126144 -0.436014 0.891056
vn -0.122143 -0.346081 0.930220
vn 0.404621 -0.501556 0.764672
vn 0.169869 -0.448907 0.877284
vn 0.642545 -0.518080 0.564562
vn 0.447042 -0.507706 0.736470
vn 0.816877 -0.484934 0.312332
vn 0.683447 -0.515309 0.517066
vn 0.911359 -0.409512 0.041534
vn 0.858370 -0.463329 0.220287
vn 0.930047 -0.337377 -0.145566
vn 0.930044 -0.336710 -0.147119
vn -0.367440 -0.854878 -0.366295
vn -0.367440 -0.854876 -0.366299
vn -0.367438 -0.854878 -0.366297
vn -0.367449 -0.854872 -0.366300
vn -0.367422 -0.854885 -0.366297
vn -0.367436 -0.854881 -0.366292
vn -0.367442 -0.854880 -0.366287
vn -0.367441 -0.854878 -0.366292
vn -0.367431 -0.854879 -0.366302
vn -0.367432 -0.854878 -0.366303
vn -0.367433 -0.854879 -0.366299
vn -0.367435 -0.854881 -0.366293
vn -0.367440 -0.854878 -0.366293
vn -0.367435 -0.854878 -0.366301
vn -0.367431 -0.854882 -0.366294
vn -0.367445 -0.854872 -0.366303
vn -0.367426 -0.854878 -0.366307
vn -0.367431 -0.854878 -0.366303
vn -0.367430 -0.854876 -0.366309
vn -0.367442 -0.854887 -0.366271
vn -0.367442 -0.854882 -0.366282
vn 0.367442 0.854879 0.366290
vn 0.367445 0.854874 0.366297
vn 0.367432 0.854881 0.366295
vn 0.367448 0.854868 0.366311
vn 0.367430 0.854883 0.366294
vn 0.367432 0.854879 0.366299
vn 0.367441 0.854879 0.366291
vn 0.367432 0.854878 0.366304
vn 0.367441 0.854880 0.366289
vn 0.367430 0.854874 0.366313
vn 0.367430 0.854880 0.366301
vn 0.367433 0.854885 0.366286
vn 0.367437 0.854876 0.366301
vn 0.367440 0.854871 0.366310
vn 0.367413 0.854891 0.366292
vn 0.367428 0.854884 0.366293
vn 0.367451 0.854877 0.366286
vn 0.367445 0.854877 0.366290
vn 0.367437 0.854872 0.366312
vn 0.367437 0.854883 0.366285
vn 0.367439 0.854883 0.366284
s 1
g polySurface59
usemtl lambert9SG
f 1/1/1 2/2/2 22/3/3 21/4/4
f 2/2/2 3/5/5 23/6/6 22/3/3
f 3/5/5 4/7/7 24/8/8 23/6/6
f 4/7/7 5/9/9 25/10/10 24/8/8
f 5/9/9 6/11/11 26/12/12 25/10/10
f 6/11/11 7/13/13 27/14/14 26/12/12
f 7/13/13 8/15/15 28/16/16 27/14/14
f 8/15/15 9/17/17 29/18/18 28/16/16
f 9/17/17 10/19/19 30/20/20 29/18/18
f 10/19/19 11/21/21 31/22/22 30/20/20
f 11/21/21 12/23/23 32/24/24 31/22/22
f 12/23/23 13/25/25 33/26/26 32/24/24
f 13/25/25 14/27/27 34/28/28 33/26/26
f 14/27/27 15/29/29 35/30/30 34/28/28
f 15/29/29 16/31/31 36/32/32 35/30/30
f 16/31/31 17/33/33 37/34/34 36/32/32
f 17/33/33 18/35/35 38/36/36 37/34/34
f 18/35/35 19/37/37 39/38/38 38/36/36
f 19/37/37 20/39/39 40/40/40 39/38/38
f 20/39/39 1/41/1 21/42/4 40/40/40
s 2
f 2/43/41 1/44/42 41/45/43
f 3/46/44 2/43/41 41/45/43
f 4/47/45 3/46/44 41/45/43
f 5/48/46 4/47/45 41/45/43
f 6/49/47 5/48/46 41/45/43
f 7/50/48 6/49/47 41/45/43
f 8/51/49 7/50/48 41/45/43
f 9/52/50 8/51/49 41/45/43
f 10/53/51 9/52/50 41/45/43
f 11/54/52 10/53/51 41/45/43
f 12/55/53 11/54/52 41/45/43
f 13/56/54 12/55/53 41/45/43
f 14/57/55 13/56/54 41/45/43
f 15/58/56 14/57/55 41/45/43
f 16/59/57 15/58/56 41/45/43
f 17/60/58 16/59/57 41/45/43
f 18/61/59 17/60/58 41/45/43
f 19/62/60 18/61/59 41/45/43
f 20/63/61 19/62/60 41/45/43
f 1/44/42 20/63/61 41/45/43
s 3
f 21/64/62 22/65/63 42/66/64
f 22/65/63 23/67/65 42/66/64
f 23/67/65 24/68/66 42/66/64
f 24/68/66 25/69/67 42/66/64
f 25/69/67 26/70/68 42/66/64
f 26/70/68 27/71/69 42/66/64
f 27/71/69 28/72/70 42/66/64
f 28/72/70 29/73/71 42/66/64
f 29/73/71 30/74/72 42/66/64
f 30/74/72 31/75/73 42/66/64
f 31/75/73 32/76/74 42/66/64
f 32/76/74 33/77/75 42/66/64
f 33/77/75 34/78/76 42/66/64
f 34/78/76 35/79/77 42/66/64
f 35/79/77 36/80/78 42/66/64
f 36/80/78 37/81/79 42/66/64
f 37/81/79 38/82/80 42/66/64
f 38/82/80 39/83/81 42/66/64
f 39/83/81 40/84/82 42/66/64
f 40/84/82 21/64/62 42/66/64
