# This file uses centimeters as units for non-parametric coordinates.

mtllib Nervio_Supraclavicular_D_1.mtl
g default
v -0.282099 0.797980 -0.226826
v -0.280772 0.800782 -0.229907
v -0.278319 0.803573 -0.232211
v -0.274982 0.806080 -0.233510
v -0.271088 0.808058 -0.233679
v -0.267016 0.809313 -0.232700
v -0.263167 0.809723 -0.230669
v -0.259916 0.809247 -0.227785
v -0.257582 0.807931 -0.224330
v -0.256394 0.805905 -0.220644
v -0.256467 0.803367 -0.217085
v -0.257795 0.800565 -0.214003
v -0.260247 0.797774 -0.211700
v -0.263584 0.795266 -0.210400
v -0.267479 0.793288 -0.210232
v -0.271550 0.792033 -0.211211
v -0.275400 0.791624 -0.213242
v -0.278650 0.792100 -0.216126
v -0.280984 0.793416 -0.219580
v -0.282173 0.795442 -0.223267
v -0.289751 0.814005 -0.215553
v -0.288423 0.816806 -0.218635
v -0.285971 0.819597 -0.220939
v -0.282634 0.822105 -0.222238
v -0.278739 0.824083 -0.222407
v -0.274668 0.825338 -0.221427
v -0.270818 0.825748 -0.219396
v -0.267567 0.825271 -0.216513
v -0.265234 0.823956 -0.213058
v -0.264045 0.821930 -0.209371
v -0.264118 0.819392 -0.205813
v -0.265446 0.816590 -0.202731
v -0.267899 0.813799 -0.200428
v -0.271235 0.811291 -0.199128
v -0.275130 0.809313 -0.198960
v -0.279202 0.808058 -0.199939
v -0.283051 0.807649 -0.201970
v -0.286302 0.808125 -0.204854
v -0.288635 0.809440 -0.208308
v -0.289824 0.811466 -0.211995
v -0.269283 0.800673 -0.221955
v -0.276935 0.816698 -0.210683
vt 0.375000 0.312500
vt 0.375000 0.688440
vt 0.387500 0.688440
vt 0.387500 0.312500
vt 0.400000 0.688440
vt 0.400000 0.312500
vt 0.412500 0.688440
vt 0.412500 0.312500
vt 0.425000 0.688440
vt 0.425000 0.312500
vt 0.437500 0.688440
vt 0.437500 0.312500
vt 0.450000 0.688440
vt 0.450000 0.312500
vt 0.462500 0.688440
vt 0.462500 0.312500
vt 0.475000 0.688440
vt 0.475000 0.312500
vt 0.487500 0.688440
vt 0.487500 0.312500
vt 0.500000 0.688440
vt 0.500000 0.312500
vt 0.512500 0.688440
vt 0.512500 0.312500
vt 0.525000 0.688440
vt 0.525000 0.312500
vt 0.537500 0.688440
vt 0.537500 0.312500
vt 0.550000 0.688440
vt 0.550000 0.312500
vt 0.562500 0.688440
vt 0.562500 0.312500
vt 0.575000 0.688440
vt 0.575000 0.312500
vt 0.587500 0.688440
vt 0.587500 0.312500
vt 0.600000 0.688440
vt 0.600000 0.312500
vt 0.612500 0.688440
vt 0.612500 0.312500
vt 0.625000 0.688440
vt 0.625000 0.312500
vt 0.626409 0.064408
vt 0.500000 0.150000
vt 0.648603 0.107966
vt 0.591842 0.029841
vt 0.548284 0.007647
vt 0.500000 -0.000000
vt 0.451716 0.007647
vt 0.408159 0.029841
vt 0.373591 0.064409
vt 0.351397 0.107966
vt 0.343750 0.156250
vt 0.351397 0.204534
vt 0.373591 0.248091
vt 0.408159 0.282659
vt 0.451716 0.304853
vt 0.500000 0.312500
vt 0.548284 0.304853
vt 0.591841 0.282659
vt 0.626409 0.248091
vt 0.648603 0.204534
vt 0.656250 0.156250
vt 0.648603 0.892034
vt 0.500000 0.837500
vt 0.626409 0.935591
vt 0.591841 0.970159
vt 0.548284 0.992353
vt 0.500000 1.000000
vt 0.451716 0.992353
vt 0.408159 0.970159
vt 0.373591 0.935591
vt 0.351397 0.892034
vt 0.343750 0.843750
vt 0.351397 0.795466
vt 0.373591 0.751909
vt 0.408159 0.717341
vt 0.451716 0.695147
vt 0.500000 0.687500
vt 0.548284 0.695147
vt 0.591842 0.717341
vt 0.626409 0.751908
vt 0.648603 0.795466
vt 0.656250 0.843750
vn -0.917250 -0.192776 -0.348555
vn -0.917249 -0.192772 -0.348560
vn -0.822220 0.007745 -0.569117
vn -0.822223 0.007741 -0.569113
vn -0.646699 0.207514 -0.733974
vn -0.646699 0.207514 -0.733974
vn -0.407884 0.386962 -0.826977
vn -0.407878 0.386965 -0.826979
vn -0.129138 0.528534 -0.839033
vn -0.129138 0.528534 -0.839033
vn 0.162250 0.618370 -0.768956
vn 0.162244 0.618369 -0.768958
vn 0.437745 0.647677 -0.623614
vn 0.437740 0.647677 -0.623618
vn 0.670406 0.613583 -0.417219
vn 0.670410 0.613582 -0.417214
vn 0.837434 0.519429 -0.169993
vn 0.837439 0.519424 -0.169982
vn 0.922492 0.374427 0.093883
vn 0.922490 0.374434 0.093871
vn 0.917246 0.192768 0.348570
vn 0.917248 0.192776 0.348559
vn 0.822220 -0.007743 0.569117
vn 0.822212 -0.007756 0.569129
vn 0.646705 -0.207507 0.733971
vn 0.646700 -0.207512 0.733974
vn 0.407887 -0.386958 0.826978
vn 0.407881 -0.386962 0.826979
vn 0.129127 -0.528537 0.839032
vn 0.129140 -0.528532 0.839033
vn -0.162268 -0.618371 0.768951
vn -0.162256 -0.618369 0.768956
vn -0.437753 -0.647671 0.623614
vn -0.437764 -0.647671 0.623607
vn -0.670403 -0.613579 0.417229
vn -0.670399 -0.613580 0.417234
vn -0.837440 -0.519421 0.169990
vn -0.837442 -0.519419 0.169984
vn -0.922494 -0.374420 -0.093883
vn -0.922495 -0.374417 -0.093888
vn 0.363778 -0.761873 -0.535925
vn 0.363775 -0.761877 -0.535921
vn 0.363776 -0.761873 -0.535926
vn 0.363772 -0.761877 -0.535924
vn 0.363768 -0.761882 -0.535919
vn 0.363775 -0.761878 -0.535920
vn 0.363782 -0.761876 -0.535917
vn 0.363783 -0.761875 -0.535919
vn 0.363773 -0.761873 -0.535928
vn 0.363768 -0.761872 -0.535933
vn 0.363771 -0.761884 -0.535914
vn 0.363778 -0.761882 -0.535912
vn 0.363782 -0.761868 -0.535930
vn 0.363772 -0.761877 -0.535924
vn 0.363775 -0.761878 -0.535920
vn 0.363759 -0.761881 -0.535926
vn 0.363773 -0.761884 -0.535912
vn 0.363790 -0.761875 -0.535914
vn 0.363764 -0.761875 -0.535932
vn 0.363774 -0.761883 -0.535913
vn 0.363780 -0.761880 -0.535913
vn -0.363775 0.761878 0.535920
vn -0.363775 0.761878 0.535920
vn -0.363775 0.761878 0.535920
vn -0.363775 0.761878 0.535920
vn -0.363775 0.761878 0.535920
vn -0.363775 0.761878 0.535920
vn -0.363775 0.761878 0.535920
vn -0.363775 0.761878 0.535920
vn -0.363775 0.761878 0.535920
vn -0.363775 0.761878 0.535920
vn -0.363776 0.761882 0.535913
vn -0.363778 0.761882 0.535912
vn -0.363782 0.761873 0.535922
vn -0.363780 0.761873 0.535923
vn -0.363781 0.761874 0.535921
vn -0.363774 0.761875 0.535924
vn -0.363760 0.761881 0.535925
vn -0.363773 0.761881 0.535917
vn -0.363780 0.761880 0.535914
vn -0.363775 0.761878 0.535920
vn -0.363775 0.761878 0.535920
s 1
g polySurface16 polySurface16 MArcadores_
usemtl lambert9SG
f 1/1/1 21/2/2 22/3/3 2/4/4
f 2/4/4 22/3/3 23/5/5 3/6/6
f 3/6/6 23/5/5 24/7/7 4/8/8
f 4/8/8 24/7/7 25/9/9 5/10/10
f 5/10/10 25/9/9 26/11/11 6/12/12
f 6/12/12 26/11/11 27/13/13 7/14/14
f 7/14/14 27/13/13 28/15/15 8/16/16
f 8/16/16 28/15/15 29/17/17 9/18/18
f 9/18/18 29/17/17 30/19/19 10/20/20
f 10/20/20 30/19/19 31/21/21 11/22/22
f 11/22/22 31/21/21 32/23/23 12/24/24
f 12/24/24 32/23/23 33/25/25 13/26/26
f 13/26/26 33/25/25 34/27/27 14/28/28
f 14/28/28 34/27/27 35/29/29 15/30/30
f 15/30/30 35/29/29 36/31/31 16/32/32
f 16/32/32 36/31/31 37/33/33 17/34/34
f 17/34/34 37/33/33 38/35/35 18/36/36
f 18/36/36 38/35/35 39/37/37 19/38/38
f 19/38/38 39/37/37 40/39/39 20/40/40
f 20/40/40 40/39/39 21/41/2 1/42/1
s 2
f 2/43/41 41/44/42 1/45/43
f 3/46/44 41/44/42 2/43/41
f 4/47/45 41/44/42 3/46/44
f 5/48/46 41/44/42 4/47/45
f 6/49/47 41/44/42 5/48/46
f 7/50/48 41/44/42 6/49/47
f 8/51/49 41/44/42 7/50/48
f 9/52/50 41/44/42 8/51/49
f 10/53/51 41/44/42 9/52/50
f 11/54/52 41/44/42 10/53/51
f 12/55/53 41/44/42 11/54/52
f 13/56/54 41/44/42 12/55/53
f 14/57/55 41/44/42 13/56/54
f 15/58/56 41/44/42 14/57/55
f 16/59/57 41/44/42 15/58/56
f 17/60/58 41/44/42 16/59/57
f 18/61/59 41/44/42 17/60/58
f 19/62/60 41/44/42 18/61/59
f 20/63/61 41/44/42 19/62/60
f 1/45/43 41/44/42 20/63/61
s 3
f 21/64/62 42/65/63 22/66/64
f 22/66/64 42/65/63 23/67/65
f 23/67/65 42/65/63 24/68/66
f 24/68/66 42/65/63 25/69/67
f 25/69/67 42/65/63 26/70/68
f 26/70/68 42/65/63 27/71/69
f 27/71/69 42/65/63 28/72/70
f 28/72/70 42/65/63 29/73/71
f 29/73/71 42/65/63 30/74/72
f 30/74/72 42/65/63 31/75/73
f 31/75/73 42/65/63 32/76/74
f 32/76/74 42/65/63 33/77/75
f 33/77/75 42/65/63 34/78/76
f 34/78/76 42/65/63 35/79/77
f 35/79/77 42/65/63 36/80/78
f 36/80/78 42/65/63 37/81/79
f 37/81/79 42/65/63 38/82/80
f 38/82/80 42/65/63 39/83/81
f 39/83/81 42/65/63 40/84/82
f 40/84/82 42/65/63 21/64/62
