# This file uses centimeters as units for non-parametric coordinates.

mtllib Resaltado_Nervio_supraclavicular_I_1.mtl
g default
v 0.424700 0.759849 -0.310626
v 0.422224 0.759849 -0.314229
v 0.418755 0.759849 -0.316889
v 0.414634 0.759849 -0.318348
v 0.410264 0.759849 -0.318461
v 0.406072 0.759849 -0.317219
v 0.402470 0.759849 -0.314742
v 0.399810 0.759849 -0.311273
v 0.398351 0.759849 -0.307152
v 0.398238 0.759849 -0.302782
v 0.399480 0.759849 -0.298591
v 0.401957 0.759849 -0.294989
v 0.405426 0.759849 -0.292328
v 0.409547 0.759849 -0.290870
v 0.413917 0.759849 -0.290756
v 0.418108 0.759849 -0.291998
v 0.421710 0.759849 -0.294475
v 0.424371 0.759849 -0.297944
v 0.425829 0.759849 -0.302065
v 0.425943 0.759849 -0.306435
v 0.424700 0.780882 -0.310626
v 0.422224 0.780882 -0.314229
v 0.418755 0.780882 -0.316889
v 0.414634 0.780882 -0.318348
v 0.410264 0.780882 -0.318461
v 0.406072 0.780882 -0.317219
v 0.402470 0.780882 -0.314742
v 0.399810 0.780882 -0.311273
v 0.398351 0.780882 -0.307152
v 0.398238 0.780882 -0.302782
v 0.399480 0.780882 -0.298591
v 0.401957 0.780882 -0.294989
v 0.405426 0.780882 -0.292328
v 0.409547 0.780882 -0.290870
v 0.413917 0.780882 -0.290756
v 0.418108 0.780882 -0.291998
v 0.421710 0.780882 -0.294475
v 0.424371 0.780882 -0.297944
v 0.425829 0.780882 -0.302065
v 0.425943 0.780882 -0.306435
v 0.412090 0.759849 -0.304609
v 0.412090 0.780882 -0.304609
vt 0.375000 0.312500
vt 0.387500 0.312500
vt 0.387500 0.688440
vt 0.375000 0.688440
vt 0.400000 0.312500
vt 0.400000 0.688440
vt 0.412500 0.312500
vt 0.412500 0.688440
vt 0.425000 0.312500
vt 0.425000 0.688440
vt 0.437500 0.312500
vt 0.437500 0.688440
vt 0.450000 0.312500
vt 0.450000 0.688440
vt 0.462500 0.312500
vt 0.462500 0.688440
vt 0.475000 0.312500
vt 0.475000 0.688440
vt 0.487500 0.312500
vt 0.487500 0.688440
vt 0.500000 0.312500
vt 0.500000 0.688440
vt 0.512500 0.312500
vt 0.512500 0.688440
vt 0.525000 0.312500
vt 0.525000 0.688440
vt 0.537500 0.312500
vt 0.537500 0.688440
vt 0.550000 0.312500
vt 0.550000 0.688440
vt 0.562500 0.312500
vt 0.562500 0.688440
vt 0.575000 0.312500
vt 0.575000 0.688440
vt 0.587500 0.312500
vt 0.587500 0.688440
vt 0.600000 0.312500
vt 0.600000 0.688440
vt 0.612500 0.312500
vt 0.612500 0.688440
vt 0.625000 0.312500
vt 0.625000 0.688440
vt 0.626409 0.064408
vt 0.648603 0.107966
vt 0.500000 0.150000
vt 0.591842 0.029841
vt 0.548284 0.007647
vt 0.500000 -0.000000
vt 0.451716 0.007647
vt 0.408159 0.029841
vt 0.373591 0.064409
vt 0.351397 0.107966
vt 0.343750 0.156250
vt 0.351397 0.204534
vt 0.373591 0.248091
vt 0.408159 0.282659
vt 0.451716 0.304853
vt 0.500000 0.312500
vt 0.548284 0.304853
vt 0.591841 0.282659
vt 0.626409 0.248091
vt 0.648603 0.204534
vt 0.656250 0.156250
vt 0.648603 0.892034
vt 0.626409 0.935591
vt 0.500000 0.837500
vt 0.591841 0.970159
vt 0.548284 0.992353
vt 0.500000 1.000000
vt 0.451716 0.992353
vt 0.408159 0.970159
vt 0.373591 0.935591
vt 0.351397 0.892034
vt 0.343750 0.843750
vt 0.351397 0.795466
vt 0.373591 0.751909
vt 0.408159 0.717341
vt 0.451716 0.695147
vt 0.500000 0.687500
vt 0.548284 0.695147
vt 0.591842 0.717341
vt 0.626409 0.751908
vt 0.648603 0.795466
vt 0.656250 0.843750
vn 0.902502 -0.000000 -0.430686
vn 0.725233 -0.000000 -0.688504
vn 0.725233 -0.000000 -0.688504
vn 0.902502 -0.000000 -0.430686
vn 0.476980 -0.000000 -0.878914
vn 0.476980 -0.000000 -0.878914
vn 0.182047 -0.000000 -0.983290
vn 0.182047 -0.000000 -0.983290
vn -0.130725 0.000000 -0.991419
vn -0.130725 0.000000 -0.991419
vn -0.430697 0.000000 -0.902497
vn -0.430697 0.000000 -0.902497
vn -0.688499 0.000000 -0.725237
vn -0.688499 0.000000 -0.725237
vn -0.878911 0.000000 -0.476986
vn -0.878911 0.000000 -0.476986
vn -0.983292 0.000000 -0.182033
vn -0.983292 0.000000 -0.182033
vn -0.991419 0.000000 0.130725
vn -0.991419 0.000000 0.130725
vn -0.902500 0.000000 0.430690
vn -0.902500 0.000000 0.430690
vn -0.725230 0.000000 0.688507
vn -0.725230 0.000000 0.688507
vn -0.476985 0.000000 0.878911
vn -0.476985 0.000000 0.878911
vn -0.182040 0.000000 0.983291
vn -0.182040 0.000000 0.983291
vn 0.130727 -0.000000 0.991418
vn 0.130727 -0.000000 0.991418
vn 0.430689 -0.000000 0.902500
vn 0.430689 -0.000000 0.902500
vn 0.688502 -0.000000 0.725235
vn 0.688502 -0.000000 0.725235
vn 0.878914 -0.000000 0.476980
vn 0.878914 -0.000000 0.476980
vn 0.983292 -0.000000 0.182038
vn 0.983292 -0.000000 0.182038
vn 0.991420 -0.000000 -0.130716
vn 0.991420 -0.000000 -0.130716
vn 0.000000 -1.000000 -0.000000
vn -0.000000 -1.000000 -0.000000
vn -0.000000 -1.000000 0.000000
vn 0.000000 -1.000000 -0.000000
vn -0.000000 -1.000000 0.000000
vn -0.000000 -1.000000 -0.000000
vn 0.000000 -1.000000 -0.000000
vn 0.000000 -1.000000 -0.000000
vn -0.000000 -1.000000 0.000000
vn 0.000000 -1.000000 -0.000000
vn -0.000000 -1.000000 -0.000000
vn -0.000000 -1.000000 0.000000
vn -0.000000 -1.000000 0.000000
vn -0.000000 -1.000000 -0.000000
vn -0.000000 -1.000000 -0.000000
vn -0.000000 -1.000000 -0.000000
vn 0.000000 -1.000000 -0.000000
vn 0.000000 -1.000000 -0.000000
vn -0.000000 -1.000000 0.000000
vn -0.000000 -1.000000 0.000000
vn -0.000000 -1.000000 0.000000
vn -0.000000 1.000000 0.000000
vn 0.000000 1.000000 -0.000000
vn -0.000000 1.000000 0.000000
vn 0.000000 1.000000 -0.000000
vn -0.000000 1.000000 0.000000
vn 0.000000 1.000000 0.000000
vn 0.000000 1.000000 -0.000000
vn 0.000000 1.000000 -0.000000
vn -0.000000 1.000000 0.000000
vn 0.000000 1.000000 0.000000
vn 0.000000 1.000000 0.000000
vn -0.000000 1.000000 0.000000
vn -0.000000 1.000000 0.000000
vn 0.000000 1.000000 0.000000
vn 0.000000 1.000000 0.000000
vn 0.000000 1.000000 0.000000
vn 0.000000 1.000000 -0.000000
vn 0.000000 1.000000 -0.000000
vn 0.000000 1.000000 0.000000
vn -0.000000 1.000000 0.000000
vn -0.000000 1.000000 0.000000
s 1
g polySurface17 Marcadores1
usemtl lambert12SG
f 1/1/1 2/2/2 22/3/3 21/4/4
f 2/2/2 3/5/5 23/6/6 22/3/3
f 3/5/5 4/7/7 24/8/8 23/6/6
f 4/7/7 5/9/9 25/10/10 24/8/8
f 5/9/9 6/11/11 26/12/12 25/10/10
f 6/11/11 7/13/13 27/14/14 26/12/12
f 7/13/13 8/15/15 28/16/16 27/14/14
f 8/15/15 9/17/17 29/18/18 28/16/16
f 9/17/17 10/19/19 30/20/20 29/18/18
f 10/19/19 11/21/21 31/22/22 30/20/20
f 11/21/21 12/23/23 32/24/24 31/22/22
f 12/23/23 13/25/25 33/26/26 32/24/24
f 13/25/25 14/27/27 34/28/28 33/26/26
f 14/27/27 15/29/29 35/30/30 34/28/28
f 15/29/29 16/31/31 36/32/32 35/30/30
f 16/31/31 17/33/33 37/34/34 36/32/32
f 17/33/33 18/35/35 38/36/36 37/34/34
f 18/35/35 19/37/37 39/38/38 38/36/36
f 19/37/37 20/39/39 40/40/40 39/38/38
f 20/39/39 1/41/1 21/42/4 40/40/40
s 2
f 2/43/41 1/44/42 41/45/43
f 3/46/44 2/43/41 41/45/43
f 4/47/45 3/46/44 41/45/43
f 5/48/46 4/47/45 41/45/43
f 6/49/47 5/48/46 41/45/43
f 7/50/48 6/49/47 41/45/43
f 8/51/49 7/50/48 41/45/43
f 9/52/50 8/51/49 41/45/43
f 10/53/51 9/52/50 41/45/43
f 11/54/52 10/53/51 41/45/43
f 12/55/53 11/54/52 41/45/43
f 13/56/54 12/55/53 41/45/43
f 14/57/55 13/56/54 41/45/43
f 15/58/56 14/57/55 41/45/43
f 16/59/57 15/58/56 41/45/43
f 17/60/58 16/59/57 41/45/43
f 18/61/59 17/60/58 41/45/43
f 19/62/60 18/61/59 41/45/43
f 20/63/61 19/62/60 41/45/43
f 1/44/42 20/63/61 41/45/43
s 3
f 21/64/62 22/65/63 42/66/64
f 22/65/63 23/67/65 42/66/64
f 23/67/65 24/68/66 42/66/64
f 24/68/66 25/69/67 42/66/64
f 25/69/67 26/70/68 42/66/64
f 26/70/68 27/71/69 42/66/64
f 27/71/69 28/72/70 42/66/64
f 28/72/70 29/73/71 42/66/64
f 29/73/71 30/74/72 42/66/64
f 30/74/72 31/75/73 42/66/64
f 31/75/73 32/76/74 42/66/64
f 32/76/74 33/77/75 42/66/64
f 33/77/75 34/78/76 42/66/64
f 34/78/76 35/79/77 42/66/64
f 35/79/77 36/80/78 42/66/64
f 36/80/78 37/81/79 42/66/64
f 37/81/79 38/82/80 42/66/64
f 38/82/80 39/83/81 42/66/64
f 39/83/81 40/84/82 42/66/64
f 40/84/82 21/64/62 42/66/64
