# This file uses centimeters as units for non-parametric coordinates.

mtllib Supratroclear_I.mtl
g default
v 0.026926 1.867239 0.267067
v 0.028873 1.870651 0.265350
v 0.031905 1.873360 0.263986
v 0.035726 1.875098 0.263111
v 0.039961 1.875698 0.262810
v 0.044196 1.875098 0.263111
v 0.048017 1.873360 0.263986
v 0.051049 1.870651 0.265350
v 0.052995 1.867239 0.267067
v 0.053666 1.863456 0.268972
v 0.052995 1.859673 0.270876
v 0.051049 1.856260 0.272594
v 0.048017 1.853552 0.273957
v 0.044196 1.851813 0.274832
v 0.039961 1.851214 0.275134
v 0.035726 1.851813 0.274832
v 0.031905 1.853552 0.273957
v 0.028873 1.856260 0.272594
v 0.026926 1.859673 0.270876
v 0.026256 1.863456 0.268972
v 0.026926 1.881456 0.295311
v 0.028873 1.884868 0.293593
v 0.031905 1.887576 0.292230
v 0.035726 1.889315 0.291354
v 0.039961 1.889914 0.291053
v 0.044196 1.889315 0.291354
v 0.048017 1.887576 0.292230
v 0.051049 1.884868 0.293593
v 0.052995 1.881456 0.295311
v 0.053666 1.877673 0.297215
v 0.052995 1.873890 0.299119
v 0.051049 1.870477 0.300837
v 0.048017 1.867769 0.302200
v 0.044196 1.866030 0.303075
v 0.039961 1.865431 0.303377
v 0.035726 1.866030 0.303075
v 0.031905 1.867769 0.302200
v 0.028873 1.870477 0.300837
v 0.026926 1.873890 0.299119
v 0.026256 1.877673 0.297215
v 0.039961 1.863456 0.268972
v 0.039961 1.877673 0.297215
vt 0.375000 0.312500
vt 0.375000 0.688440
vt 0.387500 0.688440
vt 0.387500 0.312500
vt 0.400000 0.688440
vt 0.400000 0.312500
vt 0.412500 0.688440
vt 0.412500 0.312500
vt 0.425000 0.688440
vt 0.425000 0.312500
vt 0.437500 0.688440
vt 0.437500 0.312500
vt 0.450000 0.688440
vt 0.450000 0.312500
vt 0.462500 0.688440
vt 0.462500 0.312500
vt 0.475000 0.688440
vt 0.475000 0.312500
vt 0.487500 0.688440
vt 0.487500 0.312500
vt 0.500000 0.688440
vt 0.500000 0.312500
vt 0.512500 0.688440
vt 0.512500 0.312500
vt 0.525000 0.688440
vt 0.525000 0.312500
vt 0.537500 0.688440
vt 0.537500 0.312500
vt 0.550000 0.688440
vt 0.550000 0.312500
vt 0.562500 0.688440
vt 0.562500 0.312500
vt 0.575000 0.688440
vt 0.575000 0.312500
vt 0.587500 0.688440
vt 0.587500 0.312500
vt 0.600000 0.688440
vt 0.600000 0.312500
vt 0.612500 0.688440
vt 0.612500 0.312500
vt 0.625000 0.688440
vt 0.625000 0.312500
vt 0.626409 0.064408
vt 0.500000 0.150000
vt 0.648603 0.107966
vt 0.591842 0.029841
vt 0.548284 0.007647
vt 0.500000 -0.000000
vt 0.451716 0.007647
vt 0.408159 0.029841
vt 0.373591 0.064409
vt 0.351397 0.107966
vt 0.343750 0.156250
vt 0.351397 0.204534
vt 0.373591 0.248091
vt 0.408159 0.282659
vt 0.451716 0.304853
vt 0.500000 0.312500
vt 0.548284 0.304853
vt 0.591841 0.282659
vt 0.626409 0.248091
vt 0.648603 0.204534
vt 0.656250 0.156250
vt 0.648603 0.892034
vt 0.500000 0.837500
vt 0.626409 0.935591
vt 0.591841 0.970159
vt 0.548284 0.992353
vt 0.500000 1.000000
vt 0.451716 0.992353
vt 0.408159 0.970159
vt 0.373591 0.935591
vt 0.351397 0.892034
vt 0.343750 0.843750
vt 0.351397 0.795466
vt 0.373591 0.751909
vt 0.408159 0.717341
vt 0.451716 0.695147
vt 0.500000 0.687500
vt 0.548284 0.695147
vt 0.591842 0.717341
vt 0.626409 0.751908
vt 0.648603 0.795466
vt 0.656250 0.843750
vn -0.951056 0.276021 -0.138941
vn -0.951056 0.276021 -0.138941
vn -0.809015 0.525023 -0.264281
vn -0.809015 0.525023 -0.264281
vn -0.587784 0.722631 -0.363751
vn -0.587784 0.722631 -0.363751
vn -0.309009 0.849505 -0.427616
vn -0.309009 0.849505 -0.427616
vn 0.000000 0.893220 -0.449621
vn 0.000000 0.893220 -0.449621
vn 0.309009 0.849505 -0.427616
vn 0.309009 0.849505 -0.427616
vn 0.587785 0.722630 -0.363751
vn 0.587785 0.722630 -0.363751
vn 0.809016 0.525022 -0.264281
vn 0.809016 0.525022 -0.264281
vn 0.951055 0.276024 -0.138942
vn 0.951055 0.276024 -0.138942
vn 1.000000 0.000000 0.000000
vn 1.000000 0.000000 0.000000
vn 0.951059 -0.276012 0.138937
vn 0.951059 -0.276012 0.138937
vn 0.809016 -0.525022 0.264281
vn 0.809016 -0.525022 0.264281
vn 0.587770 -0.722640 0.363756
vn 0.587770 -0.722640 0.363756
vn 0.309029 -0.849499 0.427613
vn 0.309029 -0.849499 0.427613
vn 0.000000 -0.893220 0.449621
vn 0.000000 -0.893220 0.449621
vn -0.309029 -0.849499 0.427613
vn -0.309029 -0.849499 0.427613
vn -0.587771 -0.722639 0.363755
vn -0.587771 -0.722639 0.363755
vn -0.809015 -0.525024 0.264282
vn -0.809015 -0.525024 0.264282
vn -0.951060 -0.276011 0.138936
vn -0.951060 -0.276011 0.138936
vn -1.000000 0.000000 0.000000
vn -1.000000 0.000000 0.000000
vn -0.000000 -0.449621 -0.893220
vn -0.000000 -0.449621 -0.893220
vn -0.000000 -0.449621 -0.893220
vn -0.000000 -0.449621 -0.893220
vn 0.000000 -0.449621 -0.893220
vn -0.000000 -0.449621 -0.893220
vn -0.000000 -0.449621 -0.893220
vn 0.000000 -0.449621 -0.893220
vn 0.000000 -0.449621 -0.893220
vn 0.000000 -0.449621 -0.893220
vn 0.000000 -0.449621 -0.893220
vn 0.000000 -0.449621 -0.893220
vn 0.000000 -0.449621 -0.893220
vn -0.000000 -0.449621 -0.893220
vn -0.000000 -0.449621 -0.893220
vn 0.000000 -0.449621 -0.893220
vn 0.000000 -0.449621 -0.893220
vn 0.000000 -0.449621 -0.893220
vn -0.000000 -0.449621 -0.893220
vn -0.000000 -0.449621 -0.893220
vn 0.000000 -0.449621 -0.893220
vn -0.000000 0.449621 0.893220
vn -0.000000 0.449621 0.893220
vn -0.000000 0.449621 0.893220
vn -0.000000 0.449621 0.893220
vn 0.000000 0.449621 0.893220
vn -0.000000 0.449621 0.893220
vn -0.000000 0.449621 0.893220
vn 0.000000 0.449621 0.893220
vn 0.000000 0.449621 0.893220
vn 0.000000 0.449621 0.893220
vn 0.000000 0.449621 0.893220
vn 0.000000 0.449621 0.893220
vn 0.000000 0.449621 0.893220
vn -0.000000 0.449621 0.893220
vn -0.000000 0.449621 0.893220
vn 0.000000 0.449621 0.893220
vn 0.000000 0.449621 0.893220
vn 0.000000 0.449621 0.893220
vn -0.000000 0.449621 0.893220
vn -0.000000 0.449621 0.893220
vn 0.000000 0.449621 0.893220
s 1
g polySurface6
usemtl lambert9SG
f 1/1/1 21/2/2 22/3/3 2/4/4
f 2/4/4 22/3/3 23/5/5 3/6/6
f 3/6/6 23/5/5 24/7/7 4/8/8
f 4/8/8 24/7/7 25/9/9 5/10/10
f 5/10/10 25/9/9 26/11/11 6/12/12
f 6/12/12 26/11/11 27/13/13 7/14/14
f 7/14/14 27/13/13 28/15/15 8/16/16
f 8/16/16 28/15/15 29/17/17 9/18/18
f 9/18/18 29/17/17 30/19/19 10/20/20
f 10/20/20 30/19/19 31/21/21 11/22/22
f 11/22/22 31/21/21 32/23/23 12/24/24
f 12/24/24 32/23/23 33/25/25 13/26/26
f 13/26/26 33/25/25 34/27/27 14/28/28
f 14/28/28 34/27/27 35/29/29 15/30/30
f 15/30/30 35/29/29 36/31/31 16/32/32
f 16/32/32 36/31/31 37/33/33 17/34/34
f 17/34/34 37/33/33 38/35/35 18/36/36
f 18/36/36 38/35/35 39/37/37 19/38/38
f 19/38/38 39/37/37 40/39/39 20/40/40
f 20/40/40 40/39/39 21/41/2 1/42/1
s 2
f 2/43/41 41/44/42 1/45/43
f 3/46/44 41/44/42 2/43/41
f 4/47/45 41/44/42 3/46/44
f 5/48/46 41/44/42 4/47/45
f 6/49/47 41/44/42 5/48/46
f 7/50/48 41/44/42 6/49/47
f 8/51/49 41/44/42 7/50/48
f 9/52/50 41/44/42 8/51/49
f 10/53/51 41/44/42 9/52/50
f 11/54/52 41/44/42 10/53/51
f 12/55/53 41/44/42 11/54/52
f 13/56/54 41/44/42 12/55/53
f 14/57/55 41/44/42 13/56/54
f 15/58/56 41/44/42 14/57/55
f 16/59/57 41/44/42 15/58/56
f 17/60/58 41/44/42 16/59/57
f 18/61/59 41/44/42 17/60/58
f 19/62/60 41/44/42 18/61/59
f 20/63/61 41/44/42 19/62/60
f 1/45/43 41/44/42 20/63/61
s 3
f 21/64/62 42/65/63 22/66/64
f 22/66/64 42/65/63 23/67/65
f 23/67/65 42/65/63 24/68/66
f 24/68/66 42/65/63 25/69/67
f 25/69/67 42/65/63 26/70/68
f 26/70/68 42/65/63 27/71/69
f 27/71/69 42/65/63 28/72/70
f 28/72/70 42/65/63 29/73/71
f 29/73/71 42/65/63 30/74/72
f 30/74/72 42/65/63 31/75/73
f 31/75/73 42/65/63 32/76/74
f 32/76/74 42/65/63 33/77/75
f 33/77/75 42/65/63 34/78/76
f 34/78/76 42/65/63 35/79/77
f 35/79/77 42/65/63 36/80/78
f 36/80/78 42/65/63 37/81/79
f 37/81/79 42/65/63 38/82/80
f 38/82/80 42/65/63 39/83/81
f 39/83/81 42/65/63 40/84/82
f 40/84/82 42/65/63 21/64/62
