# This file uses centimeters as units for non-parametric coordinates.

mtllib Punto_Seg_Dolor_3_4.mtl
g default
v 0.545909 0.715113 -0.320930
v 0.540745 0.718754 -0.328755
v 0.534428 0.722164 -0.333585
v 0.527577 0.725010 -0.334949
v 0.520861 0.727012 -0.332712
v 0.514938 0.727976 -0.327094
v 0.510389 0.727806 -0.318644
v 0.507658 0.726519 -0.308189
v 0.507012 0.724241 -0.296754
v 0.508516 0.721196 -0.285457
v 0.512021 0.717681 -0.275404
v 0.517185 0.714040 -0.267579
v 0.523502 0.710630 -0.262748
v 0.530354 0.707784 -0.261384
v 0.537069 0.705782 -0.263621
v 0.542992 0.704818 -0.269240
v 0.547541 0.704988 -0.277690
v 0.550272 0.706275 -0.288144
v 0.550918 0.708553 -0.299580
v 0.549414 0.711598 -0.310877
v 0.553083 0.734423 -0.316679
v 0.547919 0.738064 -0.324504
v 0.541602 0.741474 -0.329335
v 0.534750 0.744320 -0.330698
v 0.528035 0.746322 -0.328461
v 0.522112 0.747286 -0.322843
v 0.517563 0.747116 -0.314393
v 0.514832 0.745829 -0.303939
v 0.514186 0.743551 -0.292503
v 0.515690 0.740506 -0.281206
v 0.519195 0.736991 -0.271153
v 0.524359 0.733350 -0.263328
v 0.530676 0.729940 -0.258497
v 0.537527 0.727094 -0.257134
v 0.544243 0.725091 -0.259370
v 0.550166 0.724128 -0.264989
v 0.554715 0.724298 -0.273439
v 0.557446 0.725585 -0.283893
v 0.558091 0.727862 -0.295329
v 0.556588 0.730908 -0.306626
v 0.528965 0.716397 -0.298167
v 0.536139 0.735707 -0.293916
vt 0.375000 0.312500
vt 0.387500 0.312500
vt 0.387500 0.688440
vt 0.375000 0.688440
vt 0.400000 0.312500
vt 0.400000 0.688440
vt 0.412500 0.312500
vt 0.412500 0.688440
vt 0.425000 0.312500
vt 0.425000 0.688440
vt 0.437500 0.312500
vt 0.437500 0.688440
vt 0.450000 0.312500
vt 0.450000 0.688440
vt 0.462500 0.312500
vt 0.462500 0.688440
vt 0.475000 0.312500
vt 0.475000 0.688440
vt 0.487500 0.312500
vt 0.487500 0.688440
vt 0.500000 0.312500
vt 0.500000 0.688440
vt 0.512500 0.312500
vt 0.512500 0.688440
vt 0.525000 0.312500
vt 0.525000 0.688440
vt 0.537500 0.312500
vt 0.537500 0.688440
vt 0.550000 0.312500
vt 0.550000 0.688440
vt 0.562500 0.312500
vt 0.562500 0.688440
vt 0.575000 0.312500
vt 0.575000 0.688440
vt 0.587500 0.312500
vt 0.587500 0.688440
vt 0.600000 0.312500
vt 0.600000 0.688440
vt 0.612500 0.312500
vt 0.612500 0.688440
vt 0.625000 0.312500
vt 0.625000 0.688440
vt 0.626409 0.064408
vt 0.648603 0.107966
vt 0.500000 0.150000
vt 0.591842 0.029841
vt 0.548284 0.007647
vt 0.500000 -0.000000
vt 0.451716 0.007647
vt 0.408159 0.029841
vt 0.373591 0.064409
vt 0.351397 0.107966
vt 0.343750 0.156250
vt 0.351397 0.204534
vt 0.373591 0.248091
vt 0.408159 0.282659
vt 0.451716 0.304853
vt 0.500000 0.312500
vt 0.548284 0.304853
vt 0.591841 0.282659
vt 0.626409 0.248091
vt 0.648603 0.204534
vt 0.656250 0.156250
vt 0.648603 0.892034
vt 0.626409 0.935591
vt 0.500000 0.837500
vt 0.591841 0.970159
vt 0.548284 0.992353
vt 0.500000 1.000000
vt 0.451716 0.992353
vt 0.408159 0.970159
vt 0.373591 0.935591
vt 0.351397 0.892034
vt 0.343750 0.843750
vt 0.351397 0.795466
vt 0.373591 0.751909
vt 0.408159 0.717341
vt 0.451716 0.695147
vt 0.500000 0.687500
vt 0.548284 0.695147
vt 0.591842 0.717341
vt 0.626409 0.751908
vt 0.648603 0.795466
vt 0.656250 0.843750
vn 0.882532 -0.238670 -0.405184
vn 0.780541 -0.156762 -0.605129
vn 0.606855 -0.050842 -0.793185
vn 0.797505 -0.168767 -0.579226
vn 0.580007 -0.036330 -0.813801
vn 0.263100 0.113169 -0.958108
vn 0.222782 0.129923 -0.966172
vn -0.203334 0.281946 -0.937636
vn -0.245375 0.294479 -0.923620
vn -0.590719 0.376546 -0.713627
vn -0.619367 0.381185 -0.686354
vn -0.805098 0.396254 -0.441362
vn -0.822872 0.395510 -0.407988
vn -0.902549 0.379909 -0.202669
vn -0.917540 0.371867 -0.140835
vn -0.937068 0.349119 -0.004532
vn -0.939031 0.322763 0.118513
vn -0.939971 0.330441 0.085222
vn -0.895606 0.252027 0.366568
vn -0.929174 0.296642 0.220543
vn -0.797512 0.168769 0.579216
vn -0.882531 0.238668 0.405187
vn -0.606843 0.050832 0.793195
vn -0.780549 0.156765 0.605119
vn -0.263107 -0.113166 0.958107
vn -0.579993 0.036319 0.813812
vn 0.203322 -0.281938 0.937641
vn -0.222790 -0.129918 0.966171
vn 0.590722 -0.376545 0.713625
vn 0.245364 -0.294472 0.923625
vn 0.805106 -0.396253 0.441347
vn 0.619372 -0.381184 0.686351
vn 0.902545 -0.379914 0.202675
vn 0.822878 -0.395509 0.407976
vn 0.937067 -0.349120 0.004525
vn 0.917539 -0.371871 0.140834
vn 0.939971 -0.330441 -0.085226
vn 0.939030 -0.322762 -0.118519
vn 0.929174 -0.296641 -0.220543
vn 0.895607 -0.252029 -0.366564
vn -0.341061 -0.918060 -0.202095
vn -0.341056 -0.918062 -0.202097
vn -0.341058 -0.918061 -0.202096
vn -0.341059 -0.918061 -0.202095
vn -0.341054 -0.918063 -0.202096
vn -0.341051 -0.918063 -0.202097
vn -0.341060 -0.918062 -0.202091
vn -0.341055 -0.918063 -0.202094
vn -0.341053 -0.918062 -0.202102
vn -0.341052 -0.918063 -0.202100
vn -0.341051 -0.918065 -0.202093
vn -0.341057 -0.918062 -0.202095
vn -0.341049 -0.918066 -0.202090
vn -0.341063 -0.918060 -0.202096
vn -0.341061 -0.918060 -0.202095
vn -0.341043 -0.918065 -0.202103
vn -0.341069 -0.918059 -0.202088
vn -0.341059 -0.918062 -0.202091
vn -0.341057 -0.918062 -0.202095
vn -0.341058 -0.918061 -0.202095
vn -0.341061 -0.918061 -0.202094
vn 0.341064 0.918058 0.202100
vn 0.341056 0.918063 0.202094
vn 0.341059 0.918061 0.202096
vn 0.341063 0.918060 0.202095
vn 0.341058 0.918061 0.202098
vn 0.341055 0.918063 0.202096
vn 0.341057 0.918062 0.202094
vn 0.341066 0.918059 0.202095
vn 0.341062 0.918060 0.202094
vn 0.341061 0.918061 0.202094
vn 0.341059 0.918061 0.202095
vn 0.341058 0.918062 0.202092
vn 0.341079 0.918052 0.202103
vn 0.341054 0.918063 0.202096
vn 0.341058 0.918061 0.202096
vn 0.341057 0.918061 0.202096
vn 0.341059 0.918060 0.202098
vn 0.341062 0.918061 0.202088
vn 0.341059 0.918060 0.202102
vn 0.341058 0.918061 0.202097
vn 0.341058 0.918063 0.202087
s 1
g polySurface61
usemtl lambert14SG
f 1/1/1 2/2/2 22/3/3 21/4/4
f 2/2/2 3/5/5 23/6/6 22/3/3
f 3/5/5 4/7/7 24/8/8 23/6/6
f 4/7/7 5/9/9 25/10/10 24/8/8
f 5/9/9 6/11/11 26/12/12 25/10/10
f 6/11/11 7/13/13 27/14/14 26/12/12
f 7/13/13 8/15/15 28/16/16 27/14/14
f 8/15/15 9/17/17 29/18/18 28/16/16
f 9/17/17 10/19/19 30/20/20 29/18/18
f 10/19/19 11/21/21 31/22/22 30/20/20
f 11/21/21 12/23/23 32/24/24 31/22/22
f 12/23/23 13/25/25 33/26/26 32/24/24
f 13/25/25 14/27/27 34/28/28 33/26/26
f 14/27/27 15/29/29 35/30/30 34/28/28
f 15/29/29 16/31/31 36/32/32 35/30/30
f 16/31/31 17/33/33 37/34/34 36/32/32
f 17/33/33 18/35/35 38/36/36 37/34/34
f 18/35/35 19/37/37 39/38/38 38/36/36
f 19/37/37 20/39/39 40/40/40 39/38/38
f 20/39/39 1/41/1 21/42/4 40/40/40
s 2
f 2/43/41 1/44/42 41/45/43
f 3/46/44 2/43/41 41/45/43
f 4/47/45 3/46/44 41/45/43
f 5/48/46 4/47/45 41/45/43
f 6/49/47 5/48/46 41/45/43
f 7/50/48 6/49/47 41/45/43
f 8/51/49 7/50/48 41/45/43
f 9/52/50 8/51/49 41/45/43
f 10/53/51 9/52/50 41/45/43
f 11/54/52 10/53/51 41/45/43
f 12/55/53 11/54/52 41/45/43
f 13/56/54 12/55/53 41/45/43
f 14/57/55 13/56/54 41/45/43
f 15/58/56 14/57/55 41/45/43
f 16/59/57 15/58/56 41/45/43
f 17/60/58 16/59/57 41/45/43
f 18/61/59 17/60/58 41/45/43
f 19/62/60 18/61/59 41/45/43
f 20/63/61 19/62/60 41/45/43
f 1/44/42 20/63/61 41/45/43
s 3
f 21/64/62 22/65/63 42/66/64
f 22/65/63 23/67/65 42/66/64
f 23/67/65 24/68/66 42/66/64
f 24/68/66 25/69/67 42/66/64
f 25/69/67 26/70/68 42/66/64
f 26/70/68 27/71/69 42/66/64
f 27/71/69 28/72/70 42/66/64
f 28/72/70 29/73/71 42/66/64
f 29/73/71 30/74/72 42/66/64
f 30/74/72 31/75/73 42/66/64
f 31/75/73 32/76/74 42/66/64
f 32/76/74 33/77/75 42/66/64
f 33/77/75 34/78/76 42/66/64
f 34/78/76 35/79/77 42/66/64
f 35/79/77 36/80/78 42/66/64
f 36/80/78 37/81/79 42/66/64
f 37/81/79 38/82/80 42/66/64
f 38/82/80 39/83/81 42/66/64
f 39/83/81 40/84/82 42/66/64
f 40/84/82 21/64/62 42/66/64
