# This file uses centimeters as units for non-parametric coordinates.

mtllib Tercer_Nervio_Occipital.mtl
g default
v -0.011008 1.364414 -0.365036
v -0.015067 1.363927 -0.365036
v -0.016733 1.360653 -0.369938
v -0.014340 1.357866 -0.374840
v -0.010281 1.358353 -0.374840
v -0.008615 1.361627 -0.369938
v -0.012436 1.376316 -0.372500
v -0.016495 1.375829 -0.372500
v -0.018161 1.372554 -0.377402
v -0.015768 1.369768 -0.382304
v -0.011709 1.370254 -0.382304
v -0.010043 1.373529 -0.377402
v -0.012674 1.361140 -0.369938
v -0.016525 1.388308 -0.380030
v -0.018550 1.398524 -0.386498
v -0.020864 1.407561 -0.392257
v -0.024566 1.415136 -0.397215
v -0.028803 1.421853 -0.401682
v -0.032309 1.429106 -0.406426
v -0.034425 1.438639 -0.412477
v -0.035343 1.452500 -0.421115
v -0.035217 1.472379 -0.433395
v -0.020345 1.386781 -0.379377
v -0.022547 1.397651 -0.386258
v -0.024802 1.406430 -0.391853
v -0.028147 1.413044 -0.396190
v -0.032143 1.419332 -0.400374
v -0.035909 1.427052 -0.405426
v -0.038393 1.437634 -0.412153
v -0.039426 1.452265 -0.421275
v -0.039311 1.472513 -0.433785
v -0.036899 1.469415 -0.438492
v -0.021898 1.383020 -0.383974
v -0.024181 1.394184 -0.391040
v -0.026406 1.402834 -0.396553
v -0.029573 1.408968 -0.400580
v -0.033449 1.415042 -0.404623
v -0.037345 1.422995 -0.409829
v -0.040013 1.434101 -0.416893
v -0.041102 1.449117 -0.426257
v -0.040993 1.469550 -0.438882
v -0.019633 1.380786 -0.389223
v -0.021817 1.391590 -0.396062
v -0.024072 1.400369 -0.401657
v -0.027418 1.406984 -0.405995
v -0.031414 1.413272 -0.410179
v -0.035180 1.420992 -0.415231
v -0.037664 1.431573 -0.421957
v -0.038696 1.446204 -0.431079
v -0.038581 1.466452 -0.443589
v -0.015813 1.382313 -0.389876
v -0.017820 1.392463 -0.396302
v -0.020134 1.401500 -0.402061
v -0.023836 1.409076 -0.407020
v -0.028073 1.415793 -0.411487
v -0.031579 1.423046 -0.416231
v -0.033695 1.432578 -0.422281
v -0.034613 1.446439 -0.430919
v -0.034487 1.466317 -0.443199
v -0.014259 1.386074 -0.385279
v -0.016186 1.395930 -0.391520
v -0.018530 1.405097 -0.397361
v -0.022410 1.413153 -0.402630
v -0.026768 1.420083 -0.407238
v -0.030144 1.427103 -0.411829
v -0.032075 1.436111 -0.417541
v -0.032937 1.449587 -0.425936
v -0.032805 1.469281 -0.438102
vt 0.375000 0.312500
vt 0.416667 0.312500
vt 0.416667 0.688440
vt 0.375000 0.688440
vt 0.458333 0.312500
vt 0.458333 0.688440
vt 0.500000 0.312500
vt 0.500000 0.688440
vt 0.541667 0.312500
vt 0.541667 0.688440
vt 0.583333 0.312500
vt 0.583333 0.688440
vt 0.625000 0.312500
vt 0.625000 0.688440
vt 0.421875 0.020934
vt 0.578125 0.020934
vt 0.500000 0.150000
vt 0.343750 0.156250
vt 0.421875 0.291566
vt 0.578125 0.291566
vt 0.656250 0.156250
vt 0.578125 0.979066
vt 0.421875 0.979066
vt 0.500000 0.837500
vt 0.343750 0.843750
vt 0.421875 0.708434
vt 0.578125 0.708434
vt 0.656250 0.843750
vt 0.578125 0.979066
vt 0.421875 0.979066
vt 0.421875 0.979066
vt 0.578125 0.979066
vt 0.421875 0.979066
vt 0.578125 0.979066
vt 0.421875 0.979066
vt 0.578125 0.979066
vt 0.421875 0.979066
vt 0.578125 0.979066
vt 0.421875 0.979066
vt 0.578125 0.979066
vt 0.421875 0.979066
vt 0.578125 0.979066
vt 0.421875 0.979066
vt 0.578125 0.979066
vt 0.421875 0.979066
vt 0.578125 0.979066
vt 0.343750 0.843750
vt 0.343750 0.843750
vt 0.343750 0.843750
vt 0.343750 0.843750
vt 0.343750 0.843750
vt 0.343750 0.843750
vt 0.343750 0.843750
vt 0.343750 0.843750
vt 0.343750 0.843750
vt 0.421875 0.708434
vt 0.421875 0.708434
vt 0.421875 0.708434
vt 0.421875 0.708434
vt 0.421875 0.708434
vt 0.421875 0.708434
vt 0.421875 0.708434
vt 0.421875 0.708434
vt 0.421875 0.708434
vt 0.578125 0.708434
vt 0.578125 0.708434
vt 0.578125 0.708434
vt 0.578125 0.708434
vt 0.578125 0.708434
vt 0.578125 0.708434
vt 0.578125 0.708434
vt 0.578125 0.708434
vt 0.578125 0.708434
vt 0.656250 0.843750
vt 0.656250 0.843750
vt 0.656250 0.843750
vt 0.656250 0.843750
vt 0.656250 0.843750
vt 0.656250 0.843750
vt 0.656250 0.843750
vt 0.656250 0.843750
vt 0.656250 0.843750
vn -0.062971 0.524818 0.848882
vn -0.062181 0.521134 0.851207
vn -0.061810 0.519402 0.852292
vn -0.062971 0.524818 0.848882
vn -0.956988 0.062811 0.283247
vn -0.944864 -0.005638 0.327416
vn -0.942648 -0.015248 0.333441
vn -0.956988 0.062811 0.283247
vn -0.914961 -0.287429 -0.283250
vn -0.900326 -0.366729 -0.234357
vn -0.904161 -0.349898 -0.245081
vn -0.914961 -0.287429 -0.283250
vn 0.062962 -0.524820 -0.848882
vn 0.061817 -0.519398 -0.852294
vn 0.062181 -0.521125 -0.851212
vn 0.062962 -0.524820 -0.848882
vn 0.956989 -0.062809 -0.283245
vn 0.942803 0.014853 -0.333019
vn 0.944811 0.006115 -0.327559
vn 0.956989 -0.062809 -0.283245
vn 0.914964 0.287424 0.283245
vn 0.904071 0.350508 0.244541
vn 0.900576 0.365893 0.234703
vn 0.914964 0.287424 0.283245
vn 0.101150 -0.842843 0.528568
vn 0.101117 -0.842841 0.528578
vn 0.101119 -0.842841 0.528577
vn 0.101150 -0.842843 0.528568
vn 0.101114 -0.842841 0.528578
vn 0.101084 -0.842839 0.528588
vn 0.101084 -0.842839 0.528588
vn 0.077395 0.850570 -0.520135
vn 0.077395 0.850571 -0.520134
vn 0.077395 0.850570 -0.520135
vn 0.077395 0.850571 -0.520134
vn 0.077395 0.850571 -0.520134
vn 0.077395 0.850571 -0.520134
vn 0.077395 0.850571 -0.520134
vn -0.062344 0.519517 0.852183
vn -0.062588 0.520227 0.851732
vn -0.063883 0.524635 0.848927
vn -0.063810 0.524647 0.848925
vn -0.063546 0.524657 0.848938
vn -0.063538 0.524641 0.848949
vn -0.063509 0.524588 0.848984
vn -0.063505 0.524582 0.848988
vn -0.063506 0.524587 0.848985
vn -0.063509 0.524590 0.848983
vn -0.063542 0.524654 0.848941
vn -0.063543 0.524658 0.848938
vn -0.063577 0.524736 0.848888
vn -0.063579 0.524740 0.848885
vn -0.063591 0.524787 0.848855
vn -0.063591 0.524789 0.848854
vn -0.063592 0.524801 0.848847
vn -0.063592 0.524801 0.848847
vn -0.936489 -0.041207 0.348267
vn -0.936738 -0.040323 0.347702
vn -0.945162 -0.006422 0.326539
vn -0.944834 -0.007716 0.327459
vn -0.921036 -0.083387 0.380447
vn -0.917890 -0.091683 0.386098
vn -0.867691 -0.192753 0.458213
vn -0.866619 -0.194336 0.459570
vn -0.872087 -0.183626 0.453593
vn -0.871748 -0.184177 0.454019
vn -0.924537 -0.075178 0.373603
vn -0.923853 -0.076969 0.374930
vn -0.955649 0.046800 0.290765
vn -0.955783 0.047767 0.290167
vn -0.961734 0.124603 0.244012
vn -0.961749 0.125798 0.243338
vn -0.961705 0.147861 0.230784
vn -0.961705 0.147861 0.230784
vn -0.896219 -0.384188 -0.221789
vn -0.894568 -0.390145 -0.218025
vn -0.902485 -0.358629 -0.238550
vn -0.903257 -0.355499 -0.240304
vn -0.873412 -0.450715 -0.184410
vn -0.880126 -0.432630 -0.195474
vn -0.821610 -0.556977 -0.121383
vn -0.826026 -0.549576 -0.125088
vn -0.830152 -0.541743 -0.131765
vn -0.826735 -0.547741 -0.128408
vn -0.883273 -0.424479 -0.199113
vn -0.880173 -0.433048 -0.194331
vn -0.914124 -0.298208 -0.274682
vn -0.913373 -0.303622 -0.271225
vn -0.919579 -0.223601 -0.323074
vn -0.919563 -0.225813 -0.321577
vn -0.919415 -0.203054 -0.336816
vn -0.919415 -0.203054 -0.336816
vn 0.062603 -0.520220 -0.851735
vn 0.062360 -0.519512 -0.852185
vn 0.063832 -0.524661 -0.848915
vn 0.063905 -0.524653 -0.848914
vn 0.063547 -0.524635 -0.848952
vn 0.063558 -0.524653 -0.848940
vn 0.063511 -0.524576 -0.848992
vn 0.063513 -0.524581 -0.848988
vn 0.063540 -0.524579 -0.848987
vn 0.063535 -0.524577 -0.848989
vn 0.063595 -0.524649 -0.848940
vn 0.063593 -0.524644 -0.848943
vn 0.063603 -0.524738 -0.848884
vn 0.063604 -0.524734 -0.848887
vn 0.063593 -0.524786 -0.848856
vn 0.063593 -0.524784 -0.848857
vn 0.063590 -0.524797 -0.848849
vn 0.063590 -0.524797 -0.848849
vn 0.937255 0.038598 -0.346500
vn 0.937093 0.039182 -0.346875
vn 0.945187 0.006225 -0.326470
vn 0.945543 0.004805 -0.325462
vn 0.918677 0.089840 -0.384657
vn 0.921423 0.082528 -0.379696
vn 0.872161 0.184909 -0.452928
vn 0.873231 0.183234 -0.451545
vn 0.871649 0.184338 -0.454145
vn 0.872043 0.183696 -0.453648
vn 0.925830 0.071675 -0.371082
vn 0.926718 0.069285 -0.369316
vn 0.957218 -0.056938 -0.283711
vn 0.957155 -0.056417 -0.284027
vn 0.961831 -0.128584 -0.241553
vn 0.961823 -0.127537 -0.242137
vn 0.961702 -0.148561 -0.230346
vn 0.961702 -0.148561 -0.230346
vn 0.895231 0.387875 0.219347
vn 0.896659 0.382674 0.222626
vn 0.903603 0.354017 0.241194
vn 0.902770 0.357418 0.239288
vn 0.880376 0.432010 0.195716
vn 0.874420 0.448190 0.185782
vn 0.831766 0.539333 0.131473
vn 0.827016 0.547607 0.127167
vn 0.826694 0.547814 0.128365
vn 0.830080 0.541872 0.131692
vn 0.882381 0.426941 0.197801
vn 0.885346 0.418514 0.202504
vn 0.915019 0.293154 0.277129
vn 0.915554 0.288722 0.280001
vn 0.919656 0.222791 0.323416
vn 0.919656 0.220834 0.324755
vn 0.919405 0.202360 0.337261
vn 0.919405 0.202360 0.337260
s 1
g Tercer_Nervio_Occipital
usemtl lambert4SG
f 1/1/1 7/4/2 8/3/3 2/2/4
s 2
f 2/2/5 8/3/6 9/6/7 3/5/8
s 3
f 3/5/9 9/6/10 10/8/11 4/7/12
s 4
f 4/7/13 10/8/14 11/10/15 5/9/16
s 5
f 5/9/17 11/10/18 12/12/19 6/11/20
s 6
f 6/11/21 12/12/22 7/14/23 1/13/24
s 7
f 2/15/25 13/17/26 1/16/27
f 3/18/28 13/17/26 2/15/25
f 4/19/29 13/17/26 3/18/28
f 5/20/30 13/17/26 4/19/29
f 6/21/31 13/17/26 5/20/30
f 1/16/27 13/17/26 6/21/31
s 8
f 22/22/32 32/24/33 31/23/34
f 31/23/34 32/24/33 41/25/35
f 41/25/35 32/24/33 50/26/36
f 50/26/36 32/24/33 59/27/37
f 59/27/37 32/24/33 68/28/38
f 68/28/38 32/24/33 22/22/32
s 1
f 7/29/2 14/32/39 23/31/40 8/30/3
f 14/32/39 15/34/41 24/33/42 23/31/40
f 15/34/41 16/36/43 25/35/44 24/33/42
f 16/36/43 17/38/45 26/37/46 25/35/44
f 17/38/45 18/40/47 27/39/48 26/37/46
f 18/40/47 19/42/49 28/41/50 27/39/48
f 19/42/49 20/44/51 29/43/52 28/41/50
f 20/44/51 21/46/53 30/45/54 29/43/52
f 21/46/53 22/22/55 31/23/56 30/45/54
s 2
f 8/30/6 23/31/57 33/48/58 9/47/7
f 23/31/57 24/33/59 34/49/60 33/48/58
f 24/33/59 25/35/61 35/50/62 34/49/60
f 25/35/61 26/37/63 36/51/64 35/50/62
f 26/37/63 27/39/65 37/52/66 36/51/64
f 27/39/65 28/41/67 38/53/68 37/52/66
f 28/41/67 29/43/69 39/54/70 38/53/68
f 29/43/69 30/45/71 40/55/72 39/54/70
f 30/45/71 31/23/73 41/25/74 40/55/72
s 3
f 9/47/10 33/48/75 42/57/76 10/56/11
f 33/48/75 34/49/77 43/58/78 42/57/76
f 34/49/77 35/50/79 44/59/80 43/58/78
f 35/50/79 36/51/81 45/60/82 44/59/80
f 36/51/81 37/52/83 46/61/84 45/60/82
f 37/52/83 38/53/85 47/62/86 46/61/84
f 38/53/85 39/54/87 48/63/88 47/62/86
f 39/54/87 40/55/89 49/64/90 48/63/88
f 40/55/89 41/25/91 50/26/92 49/64/90
s 4
f 10/56/14 42/57/93 51/66/94 11/65/15
f 42/57/93 43/58/95 52/67/96 51/66/94
f 43/58/95 44/59/97 53/68/98 52/67/96
f 44/59/97 45/60/99 54/69/100 53/68/98
f 45/60/99 46/61/101 55/70/102 54/69/100
f 46/61/101 47/62/103 56/71/104 55/70/102
f 47/62/103 48/63/105 57/72/106 56/71/104
f 48/63/105 49/64/107 58/73/108 57/72/106
f 49/64/107 50/26/109 59/27/110 58/73/108
s 5
f 11/65/18 51/66/111 60/75/112 12/74/19
f 51/66/111 52/67/113 61/76/114 60/75/112
f 52/67/113 53/68/115 62/77/116 61/76/114
f 53/68/115 54/69/117 63/78/118 62/77/116
f 54/69/117 55/70/119 64/79/120 63/78/118
f 55/70/119 56/71/121 65/80/122 64/79/120
f 56/71/121 57/72/123 66/81/124 65/80/122
f 57/72/123 58/73/125 67/82/126 66/81/124
f 58/73/125 59/27/127 68/28/128 67/82/126
s 6
f 12/74/22 60/75/129 14/32/130 7/29/23
f 60/75/129 61/76/131 15/34/132 14/32/130
f 61/76/131 62/77/133 16/36/134 15/34/132
f 62/77/133 63/78/135 17/38/136 16/36/134
f 63/78/135 64/79/137 18/40/138 17/38/136
f 64/79/137 65/80/139 19/42/140 18/40/138
f 65/80/139 66/81/141 20/44/142 19/42/140
f 66/81/141 67/82/143 21/46/144 20/44/142
f 67/82/143 68/28/145 22/22/146 21/46/144
